<mxfile host="app.diagrams.net" modified="2021-09-07T01:29:44.726Z" agent="5.0 (Macintosh; Intel Mac OS X 10_15_7) AppleWebKit/537.36 (KHTML, like Gecko) Chrome/93.0.4577.63 Safari/537.36" etag="uL8flu7T9wOBWuntzytC" version="15.0.6" type="github">
  <diagram name="Page-1" id="e7e014a7-5840-1c2e-5031-d8a46d1fe8dd">
    <mxGraphModel dx="2863" dy="981" grid="1" gridSize="10" guides="1" tooltips="1" connect="1" arrows="1" fold="1" page="1" pageScale="1" pageWidth="1169" pageHeight="826" background="none" math="0" shadow="0">
      <root>
        <mxCell id="0" />
        <mxCell id="1" parent="0" />
        <mxCell id="BIAA3tRsBqz8I-IRi0Bk-136" style="edgeStyle=none;orthogonalLoop=1;jettySize=auto;html=1;exitX=0.5;exitY=0;exitDx=0;exitDy=0;entryX=0.5;entryY=1;entryDx=0;entryDy=0;endArrow=none;" parent="1" source="BIAA3tRsBqz8I-IRi0Bk-1" target="BIAA3tRsBqz8I-IRi0Bk-128" edge="1">
          <mxGeometry relative="1" as="geometry" />
        </mxCell>
        <mxCell id="BIAA3tRsBqz8I-IRi0Bk-182" style="edgeStyle=none;orthogonalLoop=1;jettySize=auto;html=1;exitX=0.5;exitY=0;exitDx=0;exitDy=0;entryX=0.5;entryY=1;entryDx=0;entryDy=0;endArrow=none;" parent="1" source="BIAA3tRsBqz8I-IRi0Bk-1" target="BIAA3tRsBqz8I-IRi0Bk-129" edge="1">
          <mxGeometry relative="1" as="geometry" />
        </mxCell>
        <mxCell id="BIAA3tRsBqz8I-IRi0Bk-184" style="edgeStyle=none;orthogonalLoop=1;jettySize=auto;html=1;exitX=0.5;exitY=0;exitDx=0;exitDy=0;entryX=1;entryY=0.5;entryDx=0;entryDy=0;endArrow=none;" parent="1" source="BIAA3tRsBqz8I-IRi0Bk-1" target="BIAA3tRsBqz8I-IRi0Bk-27" edge="1">
          <mxGeometry relative="1" as="geometry" />
        </mxCell>
        <mxCell id="BIAA3tRsBqz8I-IRi0Bk-187" style="edgeStyle=none;orthogonalLoop=1;jettySize=auto;html=1;exitX=0.5;exitY=0;exitDx=0;exitDy=0;entryX=1;entryY=0.5;entryDx=0;entryDy=0;endArrow=none;" parent="1" source="BIAA3tRsBqz8I-IRi0Bk-1" target="BIAA3tRsBqz8I-IRi0Bk-26" edge="1">
          <mxGeometry relative="1" as="geometry" />
        </mxCell>
        <mxCell id="BIAA3tRsBqz8I-IRi0Bk-188" style="edgeStyle=none;orthogonalLoop=1;jettySize=auto;html=1;exitX=0.5;exitY=0;exitDx=0;exitDy=0;entryX=0.5;entryY=1;entryDx=0;entryDy=0;endArrow=none;" parent="1" source="BIAA3tRsBqz8I-IRi0Bk-1" target="BIAA3tRsBqz8I-IRi0Bk-130" edge="1">
          <mxGeometry relative="1" as="geometry" />
        </mxCell>
        <mxCell id="BIAA3tRsBqz8I-IRi0Bk-189" style="edgeStyle=none;orthogonalLoop=1;jettySize=auto;html=1;exitX=0.5;exitY=0;exitDx=0;exitDy=0;entryX=1;entryY=0.5;entryDx=0;entryDy=0;endArrow=none;" parent="1" source="BIAA3tRsBqz8I-IRi0Bk-1" target="BIAA3tRsBqz8I-IRi0Bk-6" edge="1">
          <mxGeometry relative="1" as="geometry" />
        </mxCell>
        <mxCell id="BIAA3tRsBqz8I-IRi0Bk-190" style="edgeStyle=none;orthogonalLoop=1;jettySize=auto;html=1;exitX=0.5;exitY=0;exitDx=0;exitDy=0;entryX=0.5;entryY=1;entryDx=0;entryDy=0;endArrow=none;" parent="1" source="BIAA3tRsBqz8I-IRi0Bk-1" target="BIAA3tRsBqz8I-IRi0Bk-127" edge="1">
          <mxGeometry relative="1" as="geometry" />
        </mxCell>
        <mxCell id="BIAA3tRsBqz8I-IRi0Bk-1" value="CUSTOMER" style="rounded=0;whiteSpace=wrap;html=1;" parent="1" vertex="1">
          <mxGeometry x="-50" y="154.25" width="120" height="60" as="geometry" />
        </mxCell>
        <mxCell id="BIAA3tRsBqz8I-IRi0Bk-219" style="edgeStyle=none;orthogonalLoop=1;jettySize=auto;html=1;exitX=0;exitY=0.5;exitDx=0;exitDy=0;entryX=1;entryY=0.5;entryDx=0;entryDy=0;endArrow=none;" parent="1" source="BIAA3tRsBqz8I-IRi0Bk-3" target="BIAA3tRsBqz8I-IRi0Bk-5" edge="1">
          <mxGeometry relative="1" as="geometry" />
        </mxCell>
        <mxCell id="BIAA3tRsBqz8I-IRi0Bk-3" value="HAS" style="rhombus;whiteSpace=wrap;html=1;" parent="1" vertex="1">
          <mxGeometry x="-205" y="155.25" width="60" height="61" as="geometry" />
        </mxCell>
        <mxCell id="BIAA3tRsBqz8I-IRi0Bk-220" style="edgeStyle=none;orthogonalLoop=1;jettySize=auto;html=1;exitX=0.5;exitY=0;exitDx=0;exitDy=0;entryX=0.5;entryY=1;entryDx=0;entryDy=0;endArrow=none;" parent="1" source="BIAA3tRsBqz8I-IRi0Bk-5" target="BIAA3tRsBqz8I-IRi0Bk-33" edge="1">
          <mxGeometry relative="1" as="geometry" />
        </mxCell>
        <mxCell id="BIAA3tRsBqz8I-IRi0Bk-221" style="edgeStyle=none;orthogonalLoop=1;jettySize=auto;html=1;exitX=0.5;exitY=0;exitDx=0;exitDy=0;entryX=0.5;entryY=1;entryDx=0;entryDy=0;endArrow=none;" parent="1" source="BIAA3tRsBqz8I-IRi0Bk-5" target="BIAA3tRsBqz8I-IRi0Bk-31" edge="1">
          <mxGeometry relative="1" as="geometry" />
        </mxCell>
        <mxCell id="d9PDwLTGwNbEm6WTe5Uz-7" style="edgeStyle=none;orthogonalLoop=1;jettySize=auto;html=1;exitX=0.5;exitY=0;exitDx=0;exitDy=0;entryX=0.5;entryY=1;entryDx=0;entryDy=0;endArrow=none;" parent="1" source="BIAA3tRsBqz8I-IRi0Bk-5" target="d9PDwLTGwNbEm6WTe5Uz-3" edge="1">
          <mxGeometry relative="1" as="geometry" />
        </mxCell>
        <mxCell id="iurEXQxwHKVmv0Fb5syX-6" style="edgeStyle=none;orthogonalLoop=1;jettySize=auto;html=1;exitX=0;exitY=0.5;exitDx=0;exitDy=0;entryX=1;entryY=0.5;entryDx=0;entryDy=0;endArrow=none;" parent="1" source="BIAA3tRsBqz8I-IRi0Bk-5" target="iurEXQxwHKVmv0Fb5syX-3" edge="1">
          <mxGeometry relative="1" as="geometry" />
        </mxCell>
        <mxCell id="BIAA3tRsBqz8I-IRi0Bk-5" value="CREDIT_CARD" style="rounded=0;whiteSpace=wrap;html=1;" parent="1" vertex="1">
          <mxGeometry x="-442.75" y="156.25" width="120" height="60" as="geometry" />
        </mxCell>
        <mxCell id="BIAA3tRsBqz8I-IRi0Bk-6" value="&lt;u&gt;Id&lt;/u&gt;" style="ellipse;whiteSpace=wrap;html=1;" parent="1" vertex="1">
          <mxGeometry x="-175" y="84.25" width="50" height="20" as="geometry" />
        </mxCell>
        <mxCell id="BIAA3tRsBqz8I-IRi0Bk-154" style="edgeStyle=none;orthogonalLoop=1;jettySize=auto;html=1;exitX=1;exitY=0.5;exitDx=0;exitDy=0;entryX=0;entryY=0.5;entryDx=0;entryDy=0;endArrow=none;" parent="1" source="BIAA3tRsBqz8I-IRi0Bk-7" target="BIAA3tRsBqz8I-IRi0Bk-153" edge="1">
          <mxGeometry relative="1" as="geometry" />
        </mxCell>
        <mxCell id="d9PDwLTGwNbEm6WTe5Uz-41" style="edgeStyle=none;rounded=0;orthogonalLoop=1;jettySize=auto;html=1;exitX=0.5;exitY=1;exitDx=0;exitDy=0;entryX=0.5;entryY=0;entryDx=0;entryDy=0;endArrow=none;" parent="1" source="BIAA3tRsBqz8I-IRi0Bk-7" target="BIAA3tRsBqz8I-IRi0Bk-12" edge="1">
          <mxGeometry relative="1" as="geometry" />
        </mxCell>
        <mxCell id="iurEXQxwHKVmv0Fb5syX-20" style="edgeStyle=none;orthogonalLoop=1;jettySize=auto;html=1;exitX=1;exitY=0.5;exitDx=0;exitDy=0;entryX=0;entryY=0;entryDx=0;entryDy=0;endArrow=none;" parent="1" source="BIAA3tRsBqz8I-IRi0Bk-7" target="iurEXQxwHKVmv0Fb5syX-18" edge="1">
          <mxGeometry relative="1" as="geometry" />
        </mxCell>
        <mxCell id="BIAA3tRsBqz8I-IRi0Bk-7" value="PRODUCT" style="rounded=0;whiteSpace=wrap;html=1;" parent="1" vertex="1">
          <mxGeometry x="840" y="460.92" width="120" height="60" as="geometry" />
        </mxCell>
        <mxCell id="d9PDwLTGwNbEm6WTe5Uz-26" style="edgeStyle=none;rounded=0;orthogonalLoop=1;jettySize=auto;html=1;exitX=0;exitY=0.5;exitDx=0;exitDy=0;entryX=0.5;entryY=0;entryDx=0;entryDy=0;endArrow=none;" parent="1" source="BIAA3tRsBqz8I-IRi0Bk-8" target="BIAA3tRsBqz8I-IRi0Bk-22" edge="1">
          <mxGeometry relative="1" as="geometry">
            <Array as="points">
              <mxPoint x="766" y="288" />
            </Array>
          </mxGeometry>
        </mxCell>
        <mxCell id="d9PDwLTGwNbEm6WTe5Uz-32" style="edgeStyle=none;rounded=0;orthogonalLoop=1;jettySize=auto;html=1;exitX=0.5;exitY=0;exitDx=0;exitDy=0;entryX=0.5;entryY=1;entryDx=0;entryDy=0;endArrow=none;" parent="1" source="BIAA3tRsBqz8I-IRi0Bk-8" target="BIAA3tRsBqz8I-IRi0Bk-37" edge="1">
          <mxGeometry relative="1" as="geometry" />
        </mxCell>
        <mxCell id="d9PDwLTGwNbEm6WTe5Uz-33" style="edgeStyle=none;rounded=0;orthogonalLoop=1;jettySize=auto;html=1;exitX=0.5;exitY=0;exitDx=0;exitDy=0;entryX=0.5;entryY=1;entryDx=0;entryDy=0;endArrow=none;" parent="1" source="BIAA3tRsBqz8I-IRi0Bk-8" target="BIAA3tRsBqz8I-IRi0Bk-151" edge="1">
          <mxGeometry relative="1" as="geometry" />
        </mxCell>
        <mxCell id="BIAA3tRsBqz8I-IRi0Bk-8" value="SHOP" style="rounded=0;whiteSpace=wrap;html=1;" parent="1" vertex="1">
          <mxGeometry x="840" y="257.75" width="120" height="60" as="geometry" />
        </mxCell>
        <mxCell id="BIAA3tRsBqz8I-IRi0Bk-9" value="SELLS" style="rhombus;whiteSpace=wrap;html=1;" parent="1" vertex="1">
          <mxGeometry x="860" y="357.75" width="80" height="80" as="geometry" />
        </mxCell>
        <mxCell id="BIAA3tRsBqz8I-IRi0Bk-10" value="" style="endArrow=none;html=1;entryX=0.5;entryY=1;entryDx=0;entryDy=0;exitX=0.5;exitY=0;exitDx=0;exitDy=0;" parent="1" source="BIAA3tRsBqz8I-IRi0Bk-9" target="BIAA3tRsBqz8I-IRi0Bk-8" edge="1">
          <mxGeometry width="50" height="50" relative="1" as="geometry">
            <mxPoint x="880" y="347.75" as="sourcePoint" />
            <mxPoint x="930" y="297.75" as="targetPoint" />
          </mxGeometry>
        </mxCell>
        <mxCell id="BIAA3tRsBqz8I-IRi0Bk-11" value="" style="endArrow=none;html=1;entryX=0.5;entryY=1;entryDx=0;entryDy=0;exitX=0.5;exitY=0;exitDx=0;exitDy=0;" parent="1" source="BIAA3tRsBqz8I-IRi0Bk-7" target="BIAA3tRsBqz8I-IRi0Bk-9" edge="1">
          <mxGeometry width="50" height="50" relative="1" as="geometry">
            <mxPoint x="890" y="467.75" as="sourcePoint" />
            <mxPoint x="940" y="417.75" as="targetPoint" />
          </mxGeometry>
        </mxCell>
        <mxCell id="BIAA3tRsBqz8I-IRi0Bk-12" value="&lt;font&gt;BELONGS_TO&lt;/font&gt;" style="rhombus;whiteSpace=wrap;html=1;" parent="1" vertex="1">
          <mxGeometry x="845" y="603.38" width="110" height="76.62" as="geometry" />
        </mxCell>
        <mxCell id="d9PDwLTGwNbEm6WTe5Uz-30" style="edgeStyle=none;rounded=0;orthogonalLoop=1;jettySize=auto;html=1;exitX=1;exitY=0.5;exitDx=0;exitDy=0;entryX=0;entryY=0.5;entryDx=0;entryDy=0;endArrow=none;" parent="1" source="BIAA3tRsBqz8I-IRi0Bk-13" target="BIAA3tRsBqz8I-IRi0Bk-50" edge="1">
          <mxGeometry relative="1" as="geometry" />
        </mxCell>
        <mxCell id="d9PDwLTGwNbEm6WTe5Uz-31" style="edgeStyle=none;rounded=0;orthogonalLoop=1;jettySize=auto;html=1;exitX=1;exitY=0.5;exitDx=0;exitDy=0;entryX=0;entryY=0.5;entryDx=0;entryDy=0;endArrow=none;" parent="1" source="BIAA3tRsBqz8I-IRi0Bk-13" target="BIAA3tRsBqz8I-IRi0Bk-52" edge="1">
          <mxGeometry relative="1" as="geometry" />
        </mxCell>
        <mxCell id="BIAA3tRsBqz8I-IRi0Bk-13" value="PRODUCT_TYPE" style="rounded=0;whiteSpace=wrap;html=1;" parent="1" vertex="1">
          <mxGeometry x="840" y="733.38" width="120" height="60" as="geometry" />
        </mxCell>
        <mxCell id="d9PDwLTGwNbEm6WTe5Uz-28" style="edgeStyle=none;rounded=0;orthogonalLoop=1;jettySize=auto;html=1;exitX=0;exitY=0.5;exitDx=0;exitDy=0;entryX=0;entryY=0.75;entryDx=0;entryDy=0;endArrow=none;" parent="1" source="BIAA3tRsBqz8I-IRi0Bk-18" target="BIAA3tRsBqz8I-IRi0Bk-13" edge="1">
          <mxGeometry relative="1" as="geometry">
            <Array as="points">
              <mxPoint x="806" y="879.63" />
              <mxPoint x="806" y="778.63" />
            </Array>
          </mxGeometry>
        </mxCell>
        <mxCell id="d9PDwLTGwNbEm6WTe5Uz-29" style="edgeStyle=none;rounded=0;orthogonalLoop=1;jettySize=auto;html=1;exitX=1;exitY=0.5;exitDx=0;exitDy=0;entryX=1;entryY=0.75;entryDx=0;entryDy=0;endArrow=none;" parent="1" source="BIAA3tRsBqz8I-IRi0Bk-18" target="BIAA3tRsBqz8I-IRi0Bk-13" edge="1">
          <mxGeometry relative="1" as="geometry">
            <Array as="points">
              <mxPoint x="986" y="879.63" />
              <mxPoint x="986" y="778.63" />
            </Array>
          </mxGeometry>
        </mxCell>
        <mxCell id="BIAA3tRsBqz8I-IRi0Bk-18" value="&lt;font&gt;HIERARCHY&lt;/font&gt;" style="rhombus;whiteSpace=wrap;html=1;" parent="1" vertex="1">
          <mxGeometry x="856" y="834.38" width="90" height="90" as="geometry" />
        </mxCell>
        <mxCell id="BIAA3tRsBqz8I-IRi0Bk-20" value="Child&lt;br&gt;(0,1)" style="text;html=1;align=center;verticalAlign=middle;resizable=0;points=[];autosize=1;strokeColor=none;fillColor=none;" parent="1" vertex="1">
          <mxGeometry x="756" y="808.38" width="40" height="30" as="geometry" />
        </mxCell>
        <mxCell id="BIAA3tRsBqz8I-IRi0Bk-21" value="Parent&lt;br&gt;(0, N)" style="text;html=1;align=center;verticalAlign=middle;resizable=0;points=[];autosize=1;strokeColor=none;fillColor=none;" parent="1" vertex="1">
          <mxGeometry x="992" y="808.38" width="50" height="30" as="geometry" />
        </mxCell>
        <mxCell id="d9PDwLTGwNbEm6WTe5Uz-27" style="edgeStyle=none;rounded=0;orthogonalLoop=1;jettySize=auto;html=1;exitX=0.5;exitY=1;exitDx=0;exitDy=0;entryX=0;entryY=0.5;entryDx=0;entryDy=0;endArrow=none;" parent="1" source="BIAA3tRsBqz8I-IRi0Bk-22" target="BIAA3tRsBqz8I-IRi0Bk-13" edge="1">
          <mxGeometry relative="1" as="geometry">
            <Array as="points">
              <mxPoint x="766" y="763.63" />
            </Array>
          </mxGeometry>
        </mxCell>
        <mxCell id="BIAA3tRsBqz8I-IRi0Bk-22" value="RESTRICTED_TO" style="rhombus;whiteSpace=wrap;html=1;" parent="1" vertex="1">
          <mxGeometry x="706" y="595.07" width="120" height="96.62" as="geometry" />
        </mxCell>
        <mxCell id="BIAA3tRsBqz8I-IRi0Bk-23" value="&amp;gt;=1&lt;br&gt;" style="text;html=1;align=center;verticalAlign=middle;resizable=0;points=[];autosize=1;strokeColor=none;fillColor=none;" parent="1" vertex="1">
          <mxGeometry x="-122.5" y="164.25" width="40" height="20" as="geometry" />
        </mxCell>
        <mxCell id="BIAA3tRsBqz8I-IRi0Bk-26" value="Username" style="ellipse;whiteSpace=wrap;html=1;" parent="1" vertex="1">
          <mxGeometry x="-172.5" y="37.75" width="70" height="30" as="geometry" />
        </mxCell>
        <mxCell id="BIAA3tRsBqz8I-IRi0Bk-27" value="Email" style="ellipse;whiteSpace=wrap;html=1;" parent="1" vertex="1">
          <mxGeometry x="-75" y="50" width="60" height="20" as="geometry" />
        </mxCell>
        <mxCell id="BIAA3tRsBqz8I-IRi0Bk-31" value="&lt;u&gt;Card_num&lt;/u&gt;" style="ellipse;whiteSpace=wrap;html=1;" parent="1" vertex="1">
          <mxGeometry x="-600" y="89.25" width="70" height="40" as="geometry" />
        </mxCell>
        <mxCell id="BIAA3tRsBqz8I-IRi0Bk-33" value="Name" style="ellipse;whiteSpace=wrap;html=1;" parent="1" vertex="1">
          <mxGeometry x="-515" y="89.25" width="60" height="30" as="geometry" />
        </mxCell>
        <mxCell id="BIAA3tRsBqz8I-IRi0Bk-37" value="&lt;u&gt;Id&lt;/u&gt;" style="ellipse;whiteSpace=wrap;html=1;rounded=0;" parent="1" vertex="1">
          <mxGeometry x="840" y="184.25" width="40" height="27.75" as="geometry" />
        </mxCell>
        <mxCell id="BIAA3tRsBqz8I-IRi0Bk-39" value="Name" style="ellipse;whiteSpace=wrap;html=1;" parent="1" vertex="1">
          <mxGeometry x="1103.25" y="365.75" width="54.5" height="30.75" as="geometry" />
        </mxCell>
        <mxCell id="BIAA3tRsBqz8I-IRi0Bk-40" value="Color" style="ellipse;whiteSpace=wrap;html=1;" parent="1" vertex="1">
          <mxGeometry x="1164.5" y="439.12" width="40" height="27.75" as="geometry" />
        </mxCell>
        <mxCell id="BIAA3tRsBqz8I-IRi0Bk-41" value="Description" style="ellipse;whiteSpace=wrap;html=1;" parent="1" vertex="1">
          <mxGeometry x="1159.5" y="537.75" width="70" height="40" as="geometry" />
        </mxCell>
        <mxCell id="BIAA3tRsBqz8I-IRi0Bk-42" value="Size" style="ellipse;whiteSpace=wrap;html=1;" parent="1" vertex="1">
          <mxGeometry x="1140.5" y="472.62" width="40" height="27.75" as="geometry" />
        </mxCell>
        <mxCell id="BIAA3tRsBqz8I-IRi0Bk-43" value="&lt;u&gt;Id&lt;/u&gt;" style="ellipse;whiteSpace=wrap;html=1;" parent="1" vertex="1">
          <mxGeometry x="1130" y="410" width="40.5" height="27.75" as="geometry" />
        </mxCell>
        <mxCell id="BIAA3tRsBqz8I-IRi0Bk-45" value="" style="endArrow=none;html=1;entryX=0;entryY=0.5;entryDx=0;entryDy=0;exitX=1;exitY=0.5;exitDx=0;exitDy=0;" parent="1" source="BIAA3tRsBqz8I-IRi0Bk-7" target="BIAA3tRsBqz8I-IRi0Bk-39" edge="1">
          <mxGeometry width="50" height="50" relative="1" as="geometry">
            <mxPoint x="920" y="487.75" as="sourcePoint" />
            <mxPoint x="970" y="437.75" as="targetPoint" />
          </mxGeometry>
        </mxCell>
        <mxCell id="BIAA3tRsBqz8I-IRi0Bk-46" value="" style="endArrow=none;html=1;exitX=1;exitY=0.5;exitDx=0;exitDy=0;entryX=0;entryY=0.5;entryDx=0;entryDy=0;" parent="1" source="BIAA3tRsBqz8I-IRi0Bk-7" target="BIAA3tRsBqz8I-IRi0Bk-43" edge="1">
          <mxGeometry width="50" height="50" relative="1" as="geometry">
            <mxPoint x="1020" y="507.75" as="sourcePoint" />
            <mxPoint x="1070" y="457.75" as="targetPoint" />
          </mxGeometry>
        </mxCell>
        <mxCell id="BIAA3tRsBqz8I-IRi0Bk-47" value="" style="endArrow=none;html=1;entryX=0;entryY=0.5;entryDx=0;entryDy=0;exitX=1;exitY=0.5;exitDx=0;exitDy=0;" parent="1" source="BIAA3tRsBqz8I-IRi0Bk-7" target="BIAA3tRsBqz8I-IRi0Bk-40" edge="1">
          <mxGeometry width="50" height="50" relative="1" as="geometry">
            <mxPoint x="960" y="497.75" as="sourcePoint" />
            <mxPoint x="1110" y="407.75" as="targetPoint" />
          </mxGeometry>
        </mxCell>
        <mxCell id="BIAA3tRsBqz8I-IRi0Bk-48" value="" style="endArrow=none;html=1;entryX=0;entryY=1;entryDx=0;entryDy=0;exitX=1;exitY=0.5;exitDx=0;exitDy=0;" parent="1" source="BIAA3tRsBqz8I-IRi0Bk-7" target="BIAA3tRsBqz8I-IRi0Bk-42" edge="1">
          <mxGeometry width="50" height="50" relative="1" as="geometry">
            <mxPoint x="970" y="507.75" as="sourcePoint" />
            <mxPoint x="1070" y="472.75" as="targetPoint" />
          </mxGeometry>
        </mxCell>
        <mxCell id="BIAA3tRsBqz8I-IRi0Bk-49" value="" style="endArrow=none;html=1;exitX=1;exitY=0.5;exitDx=0;exitDy=0;" parent="1" source="BIAA3tRsBqz8I-IRi0Bk-7" target="BIAA3tRsBqz8I-IRi0Bk-41" edge="1">
          <mxGeometry width="50" height="50" relative="1" as="geometry">
            <mxPoint x="970" y="497.75" as="sourcePoint" />
            <mxPoint x="1137.322330470336" y="473.3566017177984" as="targetPoint" />
          </mxGeometry>
        </mxCell>
        <mxCell id="BIAA3tRsBqz8I-IRi0Bk-50" value="&lt;u&gt;Id&lt;/u&gt;" style="ellipse;whiteSpace=wrap;html=1;" parent="1" vertex="1">
          <mxGeometry x="1006" y="700" width="44" height="23.38" as="geometry" />
        </mxCell>
        <mxCell id="BIAA3tRsBqz8I-IRi0Bk-52" value="Description" style="ellipse;whiteSpace=wrap;html=1;" parent="1" vertex="1">
          <mxGeometry x="1020.5" y="732.13" width="80" height="40" as="geometry" />
        </mxCell>
        <mxCell id="BIAA3tRsBqz8I-IRi0Bk-54" value="Photos" style="ellipse;whiteSpace=wrap;html=1;" parent="1" vertex="1">
          <mxGeometry x="1090.5" y="550" width="50" height="30" as="geometry" />
        </mxCell>
        <mxCell id="BIAA3tRsBqz8I-IRi0Bk-55" value="" style="endArrow=none;html=1;exitX=1;exitY=0.5;exitDx=0;exitDy=0;entryX=0;entryY=0.5;entryDx=0;entryDy=0;" parent="1" source="BIAA3tRsBqz8I-IRi0Bk-7" target="BIAA3tRsBqz8I-IRi0Bk-54" edge="1">
          <mxGeometry width="50" height="50" relative="1" as="geometry">
            <mxPoint x="970" y="507.75" as="sourcePoint" />
            <mxPoint x="1120" y="507.75" as="targetPoint" />
          </mxGeometry>
        </mxCell>
        <mxCell id="ZvNZ9_FlC1upSQAxGc2a-94" style="edgeStyle=orthogonalEdgeStyle;rounded=0;orthogonalLoop=1;jettySize=auto;html=1;endArrow=none;endFill=0;" parent="1" target="ZvNZ9_FlC1upSQAxGc2a-93" edge="1">
          <mxGeometry relative="1" as="geometry">
            <mxPoint x="70" y="497" as="sourcePoint" />
          </mxGeometry>
        </mxCell>
        <mxCell id="d9PDwLTGwNbEm6WTe5Uz-13" style="edgeStyle=none;orthogonalLoop=1;jettySize=auto;html=1;exitX=0;exitY=0.5;exitDx=0;exitDy=0;entryX=1;entryY=0.5;entryDx=0;entryDy=0;endArrow=none;" parent="1" source="BIAA3tRsBqz8I-IRi0Bk-59" target="d9PDwLTGwNbEm6WTe5Uz-11" edge="1">
          <mxGeometry relative="1" as="geometry" />
        </mxCell>
        <mxCell id="iurEXQxwHKVmv0Fb5syX-10" style="edgeStyle=none;orthogonalLoop=1;jettySize=auto;html=1;exitX=0;exitY=0;exitDx=0;exitDy=0;entryX=0.5;entryY=1;entryDx=0;entryDy=0;endArrow=none;" parent="1" source="BIAA3tRsBqz8I-IRi0Bk-59" target="iurEXQxwHKVmv0Fb5syX-9" edge="1">
          <mxGeometry relative="1" as="geometry" />
        </mxCell>
        <mxCell id="BIAA3tRsBqz8I-IRi0Bk-59" value="ORDER" style="rounded=0;whiteSpace=wrap;html=1;" parent="1" vertex="1">
          <mxGeometry x="-50" y="470" width="120" height="60" as="geometry" />
        </mxCell>
        <mxCell id="BIAA3tRsBqz8I-IRi0Bk-60" value="PLACES" style="rhombus;whiteSpace=wrap;html=1;" parent="1" vertex="1">
          <mxGeometry x="-25" y="278" width="70" height="60" as="geometry" />
        </mxCell>
        <mxCell id="BIAA3tRsBqz8I-IRi0Bk-63" value="" style="endArrow=none;html=1;exitX=0.5;exitY=0;exitDx=0;exitDy=0;entryX=0.5;entryY=1;entryDx=0;entryDy=0;" parent="1" source="BIAA3tRsBqz8I-IRi0Bk-59" target="BIAA3tRsBqz8I-IRi0Bk-60" edge="1">
          <mxGeometry width="50" height="50" relative="1" as="geometry">
            <mxPoint x="-10" y="520" as="sourcePoint" />
            <mxPoint x="40" y="470" as="targetPoint" />
          </mxGeometry>
        </mxCell>
        <mxCell id="BIAA3tRsBqz8I-IRi0Bk-64" value="Status" style="ellipse;whiteSpace=wrap;html=1;" parent="1" vertex="1">
          <mxGeometry x="-185" y="505.25" width="55" height="20" as="geometry" />
        </mxCell>
        <mxCell id="BIAA3tRsBqz8I-IRi0Bk-65" value="" style="endArrow=none;html=1;entryX=1;entryY=0.5;entryDx=0;entryDy=0;exitX=0;exitY=0.5;exitDx=0;exitDy=0;" parent="1" source="BIAA3tRsBqz8I-IRi0Bk-59" target="BIAA3tRsBqz8I-IRi0Bk-64" edge="1">
          <mxGeometry width="50" height="50" relative="1" as="geometry">
            <mxPoint x="-140" y="620" as="sourcePoint" />
            <mxPoint x="-90" y="570" as="targetPoint" />
          </mxGeometry>
        </mxCell>
        <mxCell id="BIAA3tRsBqz8I-IRi0Bk-68" value="&lt;u&gt;Sequence_num&lt;/u&gt;" style="ellipse;whiteSpace=wrap;html=1;" parent="1" vertex="1">
          <mxGeometry x="400" y="340.5" width="100" height="31" as="geometry" />
        </mxCell>
        <mxCell id="BIAA3tRsBqz8I-IRi0Bk-74" style="edgeStyle=orthogonalEdgeStyle;rounded=0;orthogonalLoop=1;jettySize=auto;html=1;exitX=1;exitY=0.5;exitDx=0;exitDy=0;endArrow=none;endFill=0;" parent="1" target="BIAA3tRsBqz8I-IRi0Bk-79" edge="1">
          <mxGeometry relative="1" as="geometry">
            <mxPoint x="390" y="491.5" as="sourcePoint" />
          </mxGeometry>
        </mxCell>
        <mxCell id="BIAA3tRsBqz8I-IRi0Bk-77" value="Order_price" style="ellipse;whiteSpace=wrap;html=1;fillColor=#FFFFFF;" parent="1" vertex="1">
          <mxGeometry x="530" y="415" width="80" height="28.38" as="geometry" />
        </mxCell>
        <mxCell id="d9PDwLTGwNbEm6WTe5Uz-34" style="edgeStyle=none;rounded=0;orthogonalLoop=1;jettySize=auto;html=1;exitX=1;exitY=0.5;exitDx=0;exitDy=0;entryX=0;entryY=0.5;entryDx=0;entryDy=0;endArrow=none;" parent="1" source="BIAA3tRsBqz8I-IRi0Bk-79" target="BIAA3tRsBqz8I-IRi0Bk-7" edge="1">
          <mxGeometry relative="1" as="geometry" />
        </mxCell>
        <mxCell id="BIAA3tRsBqz8I-IRi0Bk-79" value="Is-a" style="triangle;whiteSpace=wrap;html=1;strokeColor=#000000;fillColor=#FFFFFF;" parent="1" vertex="1">
          <mxGeometry x="640" y="450.92" width="55" height="80" as="geometry" />
        </mxCell>
        <mxCell id="BIAA3tRsBqz8I-IRi0Bk-81" value="ISSUES" style="rhombus;whiteSpace=wrap;html=1;rounded=0;" parent="1" vertex="1">
          <mxGeometry x="-30" y="603.38" width="80" height="80" as="geometry" />
        </mxCell>
        <mxCell id="BIAA3tRsBqz8I-IRi0Bk-175" style="edgeStyle=none;orthogonalLoop=1;jettySize=auto;html=1;exitX=0.5;exitY=1;exitDx=0;exitDy=0;entryX=0.5;entryY=0;entryDx=0;entryDy=0;endArrow=none;" parent="1" source="BIAA3tRsBqz8I-IRi0Bk-86" target="BIAA3tRsBqz8I-IRi0Bk-97" edge="1">
          <mxGeometry relative="1" as="geometry" />
        </mxCell>
        <mxCell id="d9PDwLTGwNbEm6WTe5Uz-23" style="edgeStyle=none;rounded=0;orthogonalLoop=1;jettySize=auto;html=1;exitX=0.5;exitY=1;exitDx=0;exitDy=0;entryX=0.5;entryY=0;entryDx=0;entryDy=0;endArrow=none;" parent="1" source="BIAA3tRsBqz8I-IRi0Bk-86" target="BIAA3tRsBqz8I-IRi0Bk-96" edge="1">
          <mxGeometry relative="1" as="geometry" />
        </mxCell>
        <mxCell id="BIAA3tRsBqz8I-IRi0Bk-86" value="INVOICE" style="whiteSpace=wrap;html=1;rounded=0;" parent="1" vertex="1">
          <mxGeometry x="-215" y="758.5" width="120" height="60" as="geometry" />
        </mxCell>
        <mxCell id="d9PDwLTGwNbEm6WTe5Uz-24" style="edgeStyle=none;rounded=0;orthogonalLoop=1;jettySize=auto;html=1;exitX=0.5;exitY=0;exitDx=0;exitDy=0;entryX=0.5;entryY=1;entryDx=0;entryDy=0;endArrow=none;" parent="1" source="BIAA3tRsBqz8I-IRi0Bk-89" target="BIAA3tRsBqz8I-IRi0Bk-86" edge="1">
          <mxGeometry relative="1" as="geometry" />
        </mxCell>
        <mxCell id="BIAA3tRsBqz8I-IRi0Bk-89" value="&lt;u&gt;Number&lt;/u&gt;" style="ellipse;whiteSpace=wrap;html=1;rounded=0;" parent="1" vertex="1">
          <mxGeometry x="-267.25" y="858.25" width="62.25" height="35.25" as="geometry" />
        </mxCell>
        <mxCell id="BIAA3tRsBqz8I-IRi0Bk-90" value="" style="rounded=0;orthogonalLoop=1;jettySize=auto;html=1;endArrow=none;endFill=0;exitX=1;exitY=0.5;exitDx=0;exitDy=0;" parent="1" source="BIAA3tRsBqz8I-IRi0Bk-95" target="BIAA3tRsBqz8I-IRi0Bk-98" edge="1">
          <mxGeometry relative="1" as="geometry" />
        </mxCell>
        <mxCell id="BIAA3tRsBqz8I-IRi0Bk-92" style="rounded=0;orthogonalLoop=1;jettySize=auto;html=1;exitX=1;exitY=0.5;exitDx=0;exitDy=0;entryX=0;entryY=0;entryDx=0;entryDy=0;endArrow=none;endFill=0;" parent="1" source="BIAA3tRsBqz8I-IRi0Bk-95" target="BIAA3tRsBqz8I-IRi0Bk-116" edge="1">
          <mxGeometry relative="1" as="geometry" />
        </mxCell>
        <mxCell id="BIAA3tRsBqz8I-IRi0Bk-94" value="" style="edgeStyle=none;rounded=0;orthogonalLoop=1;jettySize=auto;html=1;endArrow=none;endFill=0;exitX=1;exitY=0.5;exitDx=0;exitDy=0;" parent="1" source="BIAA3tRsBqz8I-IRi0Bk-95" target="BIAA3tRsBqz8I-IRi0Bk-118" edge="1">
          <mxGeometry relative="1" as="geometry" />
        </mxCell>
        <mxCell id="iurEXQxwHKVmv0Fb5syX-8" style="edgeStyle=none;orthogonalLoop=1;jettySize=auto;html=1;exitX=0.5;exitY=1;exitDx=0;exitDy=0;entryX=0.5;entryY=0;entryDx=0;entryDy=0;endArrow=none;" parent="1" source="BIAA3tRsBqz8I-IRi0Bk-95" target="iurEXQxwHKVmv0Fb5syX-7" edge="1">
          <mxGeometry relative="1" as="geometry" />
        </mxCell>
        <mxCell id="BIAA3tRsBqz8I-IRi0Bk-95" value="PAYMENT" style="rounded=0;whiteSpace=wrap;html=1;strokeColor=#000000;fillColor=#FFFFFF;" parent="1" vertex="1">
          <mxGeometry x="-50" y="848.5" width="120" height="60" as="geometry" />
        </mxCell>
        <mxCell id="BIAA3tRsBqz8I-IRi0Bk-96" value="Status" style="ellipse;whiteSpace=wrap;html=1;rounded=0;" parent="1" vertex="1">
          <mxGeometry x="-145" y="864.5" width="60" height="24" as="geometry" />
        </mxCell>
        <mxCell id="BIAA3tRsBqz8I-IRi0Bk-97" value="Date" style="ellipse;whiteSpace=wrap;html=1;rounded=0;" parent="1" vertex="1">
          <mxGeometry x="-203.75" y="893.5" width="57.5" height="25" as="geometry" />
        </mxCell>
        <mxCell id="BIAA3tRsBqz8I-IRi0Bk-98" value="&lt;u&gt;Id&lt;/u&gt;" style="ellipse;whiteSpace=wrap;html=1;rounded=0;fillColor=#FFFFFF;" parent="1" vertex="1">
          <mxGeometry x="110" y="826" width="35" height="18.5" as="geometry" />
        </mxCell>
        <mxCell id="BIAA3tRsBqz8I-IRi0Bk-99" value="" style="edgeStyle=orthogonalEdgeStyle;rounded=0;orthogonalLoop=1;jettySize=auto;html=1;endArrow=none;endFill=0;" parent="1" source="BIAA3tRsBqz8I-IRi0Bk-100" target="BIAA3tRsBqz8I-IRi0Bk-95" edge="1">
          <mxGeometry relative="1" as="geometry" />
        </mxCell>
        <mxCell id="BIAA3tRsBqz8I-IRi0Bk-100" value="&lt;font&gt;MADE_FOR&lt;/font&gt;" style="rhombus;whiteSpace=wrap;html=1;rounded=0;" parent="1" vertex="1">
          <mxGeometry x="-40" y="748.5" width="100" height="80" as="geometry" />
        </mxCell>
        <mxCell id="BIAA3tRsBqz8I-IRi0Bk-102" value="&amp;gt;= 1" style="text;html=1;align=center;verticalAlign=middle;resizable=0;points=[];autosize=1;strokeColor=none;fillColor=none;" parent="1" vertex="1">
          <mxGeometry x="-85" y="758.5" width="40" height="20" as="geometry" />
        </mxCell>
        <mxCell id="BIAA3tRsBqz8I-IRi0Bk-198" style="edgeStyle=none;orthogonalLoop=1;jettySize=auto;html=1;exitX=1;exitY=0.5;exitDx=0;exitDy=0;entryX=0;entryY=0.5;entryDx=0;entryDy=0;endArrow=none;" parent="1" source="BIAA3tRsBqz8I-IRi0Bk-104" target="BIAA3tRsBqz8I-IRi0Bk-105" edge="1">
          <mxGeometry relative="1" as="geometry" />
        </mxCell>
        <mxCell id="BIAA3tRsBqz8I-IRi0Bk-204" style="edgeStyle=none;orthogonalLoop=1;jettySize=auto;html=1;exitX=1;exitY=0.5;exitDx=0;exitDy=0;entryX=0;entryY=0.5;entryDx=0;entryDy=0;endArrow=none;" parent="1" source="BIAA3tRsBqz8I-IRi0Bk-104" target="BIAA3tRsBqz8I-IRi0Bk-200" edge="1">
          <mxGeometry relative="1" as="geometry">
            <mxPoint x="570" y="754.005" as="targetPoint" />
          </mxGeometry>
        </mxCell>
        <mxCell id="BIAA3tRsBqz8I-IRi0Bk-205" style="edgeStyle=none;orthogonalLoop=1;jettySize=auto;html=1;exitX=1;exitY=0.5;exitDx=0;exitDy=0;entryX=0;entryY=0.5;entryDx=0;entryDy=0;endArrow=none;" parent="1" source="BIAA3tRsBqz8I-IRi0Bk-104" target="BIAA3tRsBqz8I-IRi0Bk-202" edge="1">
          <mxGeometry relative="1" as="geometry" />
        </mxCell>
        <mxCell id="BIAA3tRsBqz8I-IRi0Bk-104" value="SHIPMENT" style="rounded=0;whiteSpace=wrap;html=1;strokeColor=#000000;fillColor=#FFFFFF;" parent="1" vertex="1">
          <mxGeometry x="360" y="722.13" width="120" height="60" as="geometry" />
        </mxCell>
        <mxCell id="BIAA3tRsBqz8I-IRi0Bk-105" value="&lt;u&gt;Id&lt;/u&gt;" style="ellipse;whiteSpace=wrap;html=1;rounded=0;fillColor=#FFFFFF;" parent="1" vertex="1">
          <mxGeometry x="567" y="692.69" width="35" height="25.88" as="geometry" />
        </mxCell>
        <mxCell id="BIAA3tRsBqz8I-IRi0Bk-112" style="edgeStyle=orthogonalEdgeStyle;rounded=0;orthogonalLoop=1;jettySize=auto;html=1;exitX=0;exitY=0.5;exitDx=0;exitDy=0;entryX=0;entryY=0.5;entryDx=0;entryDy=0;endArrow=none;endFill=0;" parent="1" source="BIAA3tRsBqz8I-IRi0Bk-98" target="BIAA3tRsBqz8I-IRi0Bk-98" edge="1">
          <mxGeometry relative="1" as="geometry" />
        </mxCell>
        <mxCell id="BIAA3tRsBqz8I-IRi0Bk-116" value="Amount" style="ellipse;whiteSpace=wrap;html=1;strokeColor=#000000;fillColor=#FFFFFF;" parent="1" vertex="1">
          <mxGeometry x="95" y="918.5" width="60" height="30" as="geometry" />
        </mxCell>
        <mxCell id="BIAA3tRsBqz8I-IRi0Bk-118" value="Date" style="ellipse;whiteSpace=wrap;html=1;rounded=0;fillColor=#FFFFFF;" parent="1" vertex="1">
          <mxGeometry x="105" y="868.5" width="40" height="30" as="geometry" />
        </mxCell>
        <mxCell id="BIAA3tRsBqz8I-IRi0Bk-213" style="edgeStyle=none;orthogonalLoop=1;jettySize=auto;html=1;exitX=0;exitY=0.5;exitDx=0;exitDy=0;entryX=1;entryY=0.5;entryDx=0;entryDy=0;endArrow=none;" parent="1" source="BIAA3tRsBqz8I-IRi0Bk-120" target="BIAA3tRsBqz8I-IRi0Bk-206" edge="1">
          <mxGeometry relative="1" as="geometry" />
        </mxCell>
        <mxCell id="YEvS3idMorMy7A3DSORb-3" style="edgeStyle=none;orthogonalLoop=1;jettySize=auto;html=1;exitX=0.5;exitY=0;exitDx=0;exitDy=0;entryX=0.5;entryY=1;entryDx=0;entryDy=0;endArrow=none;" parent="1" source="BIAA3tRsBqz8I-IRi0Bk-120" target="BIAA3tRsBqz8I-IRi0Bk-228" edge="1">
          <mxGeometry relative="1" as="geometry" />
        </mxCell>
        <mxCell id="YEvS3idMorMy7A3DSORb-5" style="edgeStyle=none;orthogonalLoop=1;jettySize=auto;html=1;exitX=0.5;exitY=1;exitDx=0;exitDy=0;entryX=0.5;entryY=0;entryDx=0;entryDy=0;endArrow=none;" parent="1" source="BIAA3tRsBqz8I-IRi0Bk-120" target="YEvS3idMorMy7A3DSORb-4" edge="1">
          <mxGeometry relative="1" as="geometry" />
        </mxCell>
        <mxCell id="YEvS3idMorMy7A3DSORb-6" style="edgeStyle=none;orthogonalLoop=1;jettySize=auto;html=1;exitX=0.5;exitY=1;exitDx=0;exitDy=0;entryX=0.5;entryY=0;entryDx=0;entryDy=0;endArrow=none;" parent="1" source="BIAA3tRsBqz8I-IRi0Bk-120" target="BIAA3tRsBqz8I-IRi0Bk-231" edge="1">
          <mxGeometry relative="1" as="geometry" />
        </mxCell>
        <mxCell id="YEvS3idMorMy7A3DSORb-10" style="edgeStyle=none;orthogonalLoop=1;jettySize=auto;html=1;exitX=0;exitY=0.5;exitDx=0;exitDy=0;entryX=1;entryY=0.5;entryDx=0;entryDy=0;endArrow=none;" parent="1" source="BIAA3tRsBqz8I-IRi0Bk-120" target="YEvS3idMorMy7A3DSORb-8" edge="1">
          <mxGeometry relative="1" as="geometry" />
        </mxCell>
        <mxCell id="d9PDwLTGwNbEm6WTe5Uz-19" style="edgeStyle=none;rounded=0;orthogonalLoop=1;jettySize=auto;html=1;exitX=1;exitY=0;exitDx=0;exitDy=0;entryX=0;entryY=0.5;entryDx=0;entryDy=0;fontColor=#000000;endArrow=none;" parent="1" source="BIAA3tRsBqz8I-IRi0Bk-120" target="BIAA3tRsBqz8I-IRi0Bk-225" edge="1">
          <mxGeometry relative="1" as="geometry" />
        </mxCell>
        <mxCell id="BIAA3tRsBqz8I-IRi0Bk-120" value="PAYMENT_RECORD" style="shape=ext;margin=3;double=1;whiteSpace=wrap;html=1;align=center;strokeColor=#000000;fillColor=#FFFFFF;" parent="1" vertex="1">
          <mxGeometry x="-452.75" y="430.5" width="140" height="45" as="geometry" />
        </mxCell>
        <mxCell id="BIAA3tRsBqz8I-IRi0Bk-127" value="Password" style="ellipse;whiteSpace=wrap;html=1;" parent="1" vertex="1">
          <mxGeometry x="-15" y="20" width="70" height="30" as="geometry" />
        </mxCell>
        <mxCell id="BIAA3tRsBqz8I-IRi0Bk-128" value="Full_name" style="ellipse;whiteSpace=wrap;html=1;" parent="1" vertex="1">
          <mxGeometry x="50" y="44.25" width="65" height="30" as="geometry" />
        </mxCell>
        <mxCell id="BIAA3tRsBqz8I-IRi0Bk-129" value="Address" style="ellipse;whiteSpace=wrap;html=1;" parent="1" vertex="1">
          <mxGeometry x="130" y="14.25" width="60" height="30" as="geometry" />
        </mxCell>
        <mxCell id="BIAA3tRsBqz8I-IRi0Bk-130" value="Phone_num" style="ellipse;whiteSpace=wrap;html=1;" parent="1" vertex="1">
          <mxGeometry x="145" y="67.75" width="80" height="40" as="geometry" />
        </mxCell>
        <mxCell id="BIAA3tRsBqz8I-IRi0Bk-144" value="" style="group;" parent="1" vertex="1" connectable="0">
          <mxGeometry y="530" width="20" height="10" as="geometry" />
        </mxCell>
        <mxCell id="BIAA3tRsBqz8I-IRi0Bk-56" value="" style="edgeStyle=orthogonalEdgeStyle;rounded=0;orthogonalLoop=1;jettySize=auto;html=1;endArrow=none;endFill=0;" parent="BIAA3tRsBqz8I-IRi0Bk-144" source="BIAA3tRsBqz8I-IRi0Bk-59" target="BIAA3tRsBqz8I-IRi0Bk-81" edge="1">
          <mxGeometry relative="1" as="geometry" />
        </mxCell>
        <mxCell id="BIAA3tRsBqz8I-IRi0Bk-87" value="" style="shape=requiredInterface;html=1;verticalLabelPosition=bottom;rotation=-90;" parent="BIAA3tRsBqz8I-IRi0Bk-144" vertex="1">
          <mxGeometry x="5" y="-5" width="10" height="20" as="geometry" />
        </mxCell>
        <mxCell id="BIAA3tRsBqz8I-IRi0Bk-147" value="" style="group;" parent="1" vertex="1" connectable="0">
          <mxGeometry y="214.25" width="20" height="10" as="geometry" />
        </mxCell>
        <mxCell id="BIAA3tRsBqz8I-IRi0Bk-123" value="" style="group;" parent="BIAA3tRsBqz8I-IRi0Bk-147" vertex="1" connectable="0">
          <mxGeometry width="20" height="10" as="geometry" />
        </mxCell>
        <mxCell id="BIAA3tRsBqz8I-IRi0Bk-61" value="" style="shape=requiredInterface;html=1;verticalLabelPosition=bottom;rotation=-90;" parent="BIAA3tRsBqz8I-IRi0Bk-123" vertex="1">
          <mxGeometry x="5" y="-5" width="10" height="20" as="geometry" />
        </mxCell>
        <mxCell id="BIAA3tRsBqz8I-IRi0Bk-146" style="edgeStyle=none;orthogonalLoop=1;jettySize=auto;html=1;exitX=1;exitY=0.5;exitDx=0;exitDy=0;exitPerimeter=0;entryX=0.5;entryY=0;entryDx=0;entryDy=0;endArrow=none;" parent="BIAA3tRsBqz8I-IRi0Bk-147" source="BIAA3tRsBqz8I-IRi0Bk-61" target="BIAA3tRsBqz8I-IRi0Bk-60" edge="1">
          <mxGeometry relative="1" as="geometry" />
        </mxCell>
        <mxCell id="BIAA3tRsBqz8I-IRi0Bk-151" value="Name" style="ellipse;whiteSpace=wrap;html=1;rounded=0;" parent="1" vertex="1">
          <mxGeometry x="920" y="184.25" width="50" height="27.75" as="geometry" />
        </mxCell>
        <mxCell id="BIAA3tRsBqz8I-IRi0Bk-153" value="Price" style="ellipse;whiteSpace=wrap;html=1;" parent="1" vertex="1">
          <mxGeometry x="1184.5" y="500.37" width="40" height="27.75" as="geometry" />
        </mxCell>
        <mxCell id="BIAA3tRsBqz8I-IRi0Bk-158" value="" style="group;" parent="1" vertex="1" connectable="0">
          <mxGeometry x="890" y="723.38" width="20" height="10" as="geometry" />
        </mxCell>
        <mxCell id="BIAA3tRsBqz8I-IRi0Bk-14" value="" style="endArrow=none;html=1;exitX=0.5;exitY=0;exitDx=0;exitDy=0;entryX=0.5;entryY=1;entryDx=0;entryDy=0;" parent="BIAA3tRsBqz8I-IRi0Bk-158" source="BIAA3tRsBqz8I-IRi0Bk-13" target="BIAA3tRsBqz8I-IRi0Bk-12" edge="1">
          <mxGeometry width="50" height="50" relative="1" as="geometry">
            <mxPoint x="-120" y="20" as="sourcePoint" />
            <mxPoint x="20" y="-20" as="targetPoint" />
          </mxGeometry>
        </mxCell>
        <mxCell id="BIAA3tRsBqz8I-IRi0Bk-16" value="" style="shape=requiredInterface;html=1;verticalLabelPosition=bottom;rotation=90;" parent="BIAA3tRsBqz8I-IRi0Bk-158" vertex="1">
          <mxGeometry x="5" y="-5" width="10" height="20" as="geometry" />
        </mxCell>
        <mxCell id="BIAA3tRsBqz8I-IRi0Bk-167" value="Product_unit_price" style="ellipse;whiteSpace=wrap;html=1;" parent="1" vertex="1">
          <mxGeometry x="260" y="411.19" width="110" height="36" as="geometry" />
        </mxCell>
        <mxCell id="BIAA3tRsBqz8I-IRi0Bk-168" value="Quantity" style="ellipse;whiteSpace=wrap;html=1;" parent="1" vertex="1">
          <mxGeometry x="340" y="371.5" width="60" height="25" as="geometry" />
        </mxCell>
        <mxCell id="BIAA3tRsBqz8I-IRi0Bk-169" value="Status" style="ellipse;whiteSpace=wrap;html=1;" parent="1" vertex="1">
          <mxGeometry x="460" y="401" width="50" height="25" as="geometry" />
        </mxCell>
        <mxCell id="BIAA3tRsBqz8I-IRi0Bk-197" value="" style="group;" parent="1" vertex="1" connectable="0">
          <mxGeometry x="-95" y="778.5" width="10" height="20" as="geometry" />
        </mxCell>
        <mxCell id="BIAA3tRsBqz8I-IRi0Bk-85" value="" style="edgeStyle=orthogonalEdgeStyle;rounded=0;orthogonalLoop=1;jettySize=auto;html=1;endArrow=none;endFill=0;" parent="BIAA3tRsBqz8I-IRi0Bk-197" source="BIAA3tRsBqz8I-IRi0Bk-86" target="BIAA3tRsBqz8I-IRi0Bk-100" edge="1">
          <mxGeometry relative="1" as="geometry" />
        </mxCell>
        <mxCell id="BIAA3tRsBqz8I-IRi0Bk-101" value="" style="shape=requiredInterface;html=1;verticalLabelPosition=bottom;rotation=-180;" parent="BIAA3tRsBqz8I-IRi0Bk-197" vertex="1">
          <mxGeometry width="10" height="20" as="geometry" />
        </mxCell>
        <mxCell id="BIAA3tRsBqz8I-IRi0Bk-200" value="Date" style="ellipse;whiteSpace=wrap;html=1;rounded=0;fillColor=#FFFFFF;" parent="1" vertex="1">
          <mxGeometry x="565" y="739.01" width="45" height="26.25" as="geometry" />
        </mxCell>
        <mxCell id="BIAA3tRsBqz8I-IRi0Bk-202" value="Tracking_num" style="ellipse;whiteSpace=wrap;html=1;rounded=0;fillColor=#FFFFFF;" parent="1" vertex="1">
          <mxGeometry x="530" y="782.13" width="90" height="42.5" as="geometry" />
        </mxCell>
        <mxCell id="BIAA3tRsBqz8I-IRi0Bk-206" value="CUSTOMER.Id" style="ellipse;whiteSpace=wrap;html=1;strokeColor=#000000;fillColor=#FFFFFF;" parent="1" vertex="1">
          <mxGeometry x="-710" y="367.12" width="90" height="37.81" as="geometry" />
        </mxCell>
        <mxCell id="BIAA3tRsBqz8I-IRi0Bk-218" style="edgeStyle=none;orthogonalLoop=1;jettySize=auto;html=1;exitX=1;exitY=0.5;exitDx=0;exitDy=0;entryX=0;entryY=0.5;entryDx=0;entryDy=0;endArrow=none;" parent="1" source="BIAA3tRsBqz8I-IRi0Bk-207" target="BIAA3tRsBqz8I-IRi0Bk-120" edge="1">
          <mxGeometry relative="1" as="geometry" />
        </mxCell>
        <mxCell id="BIAA3tRsBqz8I-IRi0Bk-207" value="ORDER.Id" style="ellipse;whiteSpace=wrap;html=1;strokeColor=#000000;fillColor=#FFFFFF;" parent="1" vertex="1">
          <mxGeometry x="-717" y="490.12" width="80" height="35" as="geometry" />
        </mxCell>
        <mxCell id="BIAA3tRsBqz8I-IRi0Bk-216" style="edgeStyle=none;orthogonalLoop=1;jettySize=auto;html=1;exitX=1;exitY=0.5;exitDx=0;exitDy=0;entryX=0;entryY=0.5;entryDx=0;entryDy=0;endArrow=none;" parent="1" source="BIAA3tRsBqz8I-IRi0Bk-208" target="BIAA3tRsBqz8I-IRi0Bk-120" edge="1">
          <mxGeometry relative="1" as="geometry" />
        </mxCell>
        <mxCell id="BIAA3tRsBqz8I-IRi0Bk-208" value="CREDIT_CARD.Card_num" style="ellipse;whiteSpace=wrap;html=1;strokeColor=#000000;fillColor=#FFFFFF;" parent="1" vertex="1">
          <mxGeometry x="-770" y="427.12" width="150" height="49" as="geometry" />
        </mxCell>
        <mxCell id="BIAA3tRsBqz8I-IRi0Bk-225" value="&lt;font&gt;CONTAINS&lt;/font&gt;" style="shape=rhombus;double=1;perimeter=rhombusPerimeter;whiteSpace=wrap;html=1;align=center;strokeColor=#000000;fillColor=#FFFFFF;" parent="1" vertex="1">
          <mxGeometry x="-235" y="278" width="120" height="60" as="geometry" />
        </mxCell>
        <mxCell id="BIAA3tRsBqz8I-IRi0Bk-228" value="&lt;font&gt;CONTAINS&lt;/font&gt;" style="shape=rhombus;double=1;perimeter=rhombusPerimeter;whiteSpace=wrap;html=1;align=center;strokeColor=#000000;fillColor=#FFFFFF;" parent="1" vertex="1">
          <mxGeometry x="-442.75" y="278" width="120" height="60" as="geometry" />
        </mxCell>
        <mxCell id="BIAA3tRsBqz8I-IRi0Bk-231" value="&lt;font&gt;CONTAINS&lt;/font&gt;" style="shape=rhombus;double=1;perimeter=rhombusPerimeter;whiteSpace=wrap;html=1;align=center;strokeColor=#000000;fillColor=#FFFFFF;" parent="1" vertex="1">
          <mxGeometry x="-362.75" y="590.25" width="120" height="60" as="geometry" />
        </mxCell>
        <mxCell id="BIAA3tRsBqz8I-IRi0Bk-234" value="" style="group;" parent="1" vertex="1" connectable="0">
          <mxGeometry x="-165.16840575370347" y="747.1540508978795" width="20.33681150740692" height="10.691898204240943" as="geometry" />
        </mxCell>
        <mxCell id="BIAA3tRsBqz8I-IRi0Bk-80" value="" style="edgeStyle=orthogonalEdgeStyle;rounded=0;orthogonalLoop=1;jettySize=auto;html=1;endArrow=none;endFill=0;" parent="BIAA3tRsBqz8I-IRi0Bk-234" source="BIAA3tRsBqz8I-IRi0Bk-81" target="BIAA3tRsBqz8I-IRi0Bk-86" edge="1">
          <mxGeometry relative="1" as="geometry" />
        </mxCell>
        <mxCell id="BIAA3tRsBqz8I-IRi0Bk-88" value="" style="shape=requiredInterface;html=1;verticalLabelPosition=bottom;rotation=92;" parent="BIAA3tRsBqz8I-IRi0Bk-234" vertex="1">
          <mxGeometry x="5.1684057537034604" y="-4.654050897879529" width="10" height="20" as="geometry" />
        </mxCell>
        <mxCell id="YEvS3idMorMy7A3DSORb-4" value="&lt;font&gt;CONTAINS&lt;/font&gt;" style="shape=rhombus;double=1;perimeter=rhombusPerimeter;whiteSpace=wrap;html=1;align=center;strokeColor=#000000;fillColor=#FFFFFF;" parent="1" vertex="1">
          <mxGeometry x="-522.75" y="590.25" width="120" height="60" as="geometry" />
        </mxCell>
        <mxCell id="YEvS3idMorMy7A3DSORb-8" value="INVOICE.Number" style="ellipse;whiteSpace=wrap;html=1;strokeColor=#000000;fillColor=#FFFFFF;" parent="1" vertex="1">
          <mxGeometry x="-735.5" y="542.37" width="117" height="37.63" as="geometry" />
        </mxCell>
        <mxCell id="d9PDwLTGwNbEm6WTe5Uz-21" style="edgeStyle=none;rounded=0;orthogonalLoop=1;jettySize=auto;html=1;exitX=0.5;exitY=1;exitDx=0;exitDy=0;entryX=0;entryY=0.5;entryDx=0;entryDy=0;endArrow=none;" parent="1" source="YEvS3idMorMy7A3DSORb-11" target="BIAA3tRsBqz8I-IRi0Bk-120" edge="1">
          <mxGeometry relative="1" as="geometry" />
        </mxCell>
        <mxCell id="YEvS3idMorMy7A3DSORb-11" value="&lt;u&gt;Datetime&lt;/u&gt;" style="ellipse;whiteSpace=wrap;html=1;strokeColor=#000000;fillColor=#FFFFFF;" parent="1" vertex="1">
          <mxGeometry x="-560" y="367.12" width="60" height="30.37" as="geometry" />
        </mxCell>
        <mxCell id="uO7FjOwFomCsVzwb91al-4" value="" style="group;" parent="1" vertex="1" connectable="0">
          <mxGeometry x="-392.75" y="216.25" width="20" height="10" as="geometry" />
        </mxCell>
        <mxCell id="BIAA3tRsBqz8I-IRi0Bk-230" style="edgeStyle=none;orthogonalLoop=1;jettySize=auto;html=1;exitX=0.5;exitY=0;exitDx=0;exitDy=0;entryX=0.5;entryY=1;entryDx=0;entryDy=0;endArrow=none;" parent="uO7FjOwFomCsVzwb91al-4" source="BIAA3tRsBqz8I-IRi0Bk-228" target="BIAA3tRsBqz8I-IRi0Bk-5" edge="1">
          <mxGeometry relative="1" as="geometry" />
        </mxCell>
        <mxCell id="uO7FjOwFomCsVzwb91al-1" value="" style="group;" parent="uO7FjOwFomCsVzwb91al-4" vertex="1" connectable="0">
          <mxGeometry width="20" height="10" as="geometry" />
        </mxCell>
        <mxCell id="uO7FjOwFomCsVzwb91al-2" value="" style="edgeStyle=orthogonalEdgeStyle;rounded=0;orthogonalLoop=1;jettySize=auto;html=1;endArrow=none;endFill=0;" parent="uO7FjOwFomCsVzwb91al-1" edge="1">
          <mxGeometry relative="1" as="geometry" />
        </mxCell>
        <mxCell id="uO7FjOwFomCsVzwb91al-3" value="" style="shape=requiredInterface;html=1;verticalLabelPosition=bottom;rotation=-90;" parent="uO7FjOwFomCsVzwb91al-1" vertex="1">
          <mxGeometry x="5" y="-5" width="10" height="20" as="geometry" />
        </mxCell>
        <mxCell id="uO7FjOwFomCsVzwb91al-15" value="" style="group;rotation=-15;fontStyle=4" parent="1" vertex="1" connectable="0">
          <mxGeometry x="-63.258098312460284" y="209.24561752037755" width="20.516196624920568" height="21.74876495924491" as="geometry" />
        </mxCell>
        <mxCell id="BIAA3tRsBqz8I-IRi0Bk-226" style="edgeStyle=none;orthogonalLoop=1;jettySize=auto;html=1;exitX=1;exitY=0.5;exitDx=0;exitDy=0;entryX=0;entryY=1;entryDx=0;entryDy=0;endArrow=none;" parent="uO7FjOwFomCsVzwb91al-15" source="BIAA3tRsBqz8I-IRi0Bk-225" target="BIAA3tRsBqz8I-IRi0Bk-1" edge="1">
          <mxGeometry relative="1" as="geometry" />
        </mxCell>
        <mxCell id="uO7FjOwFomCsVzwb91al-10" value="" style="group;rotation=35;" parent="uO7FjOwFomCsVzwb91al-15" vertex="1" connectable="0">
          <mxGeometry y="6" width="20" height="10" as="geometry" />
        </mxCell>
        <mxCell id="uO7FjOwFomCsVzwb91al-11" style="edgeStyle=none;orthogonalLoop=1;jettySize=auto;html=1;exitX=0.5;exitY=0;exitDx=0;exitDy=0;entryX=0.5;entryY=1;entryDx=0;entryDy=0;fontColor=#007FFF;endArrow=none;" parent="uO7FjOwFomCsVzwb91al-10" edge="1">
          <mxGeometry relative="1" as="geometry" />
        </mxCell>
        <mxCell id="uO7FjOwFomCsVzwb91al-12" value="" style="group;rotation=35;" parent="uO7FjOwFomCsVzwb91al-10" vertex="1" connectable="0">
          <mxGeometry width="20" height="10" as="geometry" />
        </mxCell>
        <mxCell id="uO7FjOwFomCsVzwb91al-13" value="" style="edgeStyle=orthogonalEdgeStyle;rounded=0;orthogonalLoop=1;jettySize=auto;html=1;endArrow=none;endFill=0;" parent="uO7FjOwFomCsVzwb91al-12" edge="1">
          <mxGeometry relative="1" as="geometry" />
        </mxCell>
        <mxCell id="uO7FjOwFomCsVzwb91al-14" value="" style="shape=requiredInterface;html=1;verticalLabelPosition=bottom;rotation=-55;" parent="uO7FjOwFomCsVzwb91al-12" vertex="1">
          <mxGeometry x="5" y="-8" width="10" height="20" as="geometry" />
        </mxCell>
        <mxCell id="uO7FjOwFomCsVzwb91al-22" value="" style="group;" parent="1" vertex="1" connectable="0">
          <mxGeometry x="-61.677819582470555" y="520.9166465115967" width="14.8356391649411" height="21.906706976806618" as="geometry" />
        </mxCell>
        <mxCell id="BIAA3tRsBqz8I-IRi0Bk-233" style="edgeStyle=none;orthogonalLoop=1;jettySize=auto;html=1;exitX=1;exitY=0.5;exitDx=0;exitDy=0;entryX=0;entryY=1;entryDx=0;entryDy=0;endArrow=none;" parent="uO7FjOwFomCsVzwb91al-22" source="BIAA3tRsBqz8I-IRi0Bk-231" target="BIAA3tRsBqz8I-IRi0Bk-59" edge="1">
          <mxGeometry relative="1" as="geometry" />
        </mxCell>
        <mxCell id="uO7FjOwFomCsVzwb91al-17" value="" style="group;rotation=75;" parent="uO7FjOwFomCsVzwb91al-22" vertex="1" connectable="0">
          <mxGeometry x="-2.5821804175294503" y="5.953353488403309" width="20" height="10" as="geometry" />
        </mxCell>
        <mxCell id="uO7FjOwFomCsVzwb91al-18" style="edgeStyle=none;orthogonalLoop=1;jettySize=auto;html=1;exitX=0.5;exitY=0;exitDx=0;exitDy=0;entryX=0.5;entryY=1;entryDx=0;entryDy=0;fontColor=#007FFF;endArrow=none;" parent="uO7FjOwFomCsVzwb91al-17" edge="1">
          <mxGeometry relative="1" as="geometry" />
        </mxCell>
        <mxCell id="uO7FjOwFomCsVzwb91al-19" value="" style="group;rotation=75;" parent="uO7FjOwFomCsVzwb91al-17" vertex="1" connectable="0">
          <mxGeometry width="20" height="10" as="geometry" />
        </mxCell>
        <mxCell id="uO7FjOwFomCsVzwb91al-20" value="" style="edgeStyle=orthogonalEdgeStyle;rounded=0;orthogonalLoop=1;jettySize=auto;html=1;endArrow=none;endFill=0;" parent="uO7FjOwFomCsVzwb91al-19" edge="1">
          <mxGeometry relative="1" as="geometry" />
        </mxCell>
        <mxCell id="uO7FjOwFomCsVzwb91al-21" value="" style="shape=requiredInterface;html=1;verticalLabelPosition=bottom;rotation=-15;" parent="uO7FjOwFomCsVzwb91al-19" vertex="1">
          <mxGeometry x="5" y="-5" width="10" height="20" as="geometry" />
        </mxCell>
        <mxCell id="uO7FjOwFomCsVzwb91al-28" value="" style="group;" parent="1" vertex="1" connectable="0">
          <mxGeometry x="-227.85866453718626" y="746.8929730755126" width="16.237329074372468" height="22.2140538489748" as="geometry" />
        </mxCell>
        <mxCell id="YEvS3idMorMy7A3DSORb-7" style="edgeStyle=none;orthogonalLoop=1;jettySize=auto;html=1;exitX=0.5;exitY=1;exitDx=0;exitDy=0;entryX=0;entryY=0;entryDx=0;entryDy=0;endArrow=none;" parent="uO7FjOwFomCsVzwb91al-28" source="YEvS3idMorMy7A3DSORb-4" target="BIAA3tRsBqz8I-IRi0Bk-86" edge="1">
          <mxGeometry relative="1" as="geometry" />
        </mxCell>
        <mxCell id="uO7FjOwFomCsVzwb91al-23" value="" style="group;rotation=110;" parent="uO7FjOwFomCsVzwb91al-28" vertex="1" connectable="0">
          <mxGeometry x="-1.881335462813766" y="6.1070269244874" width="20" height="10" as="geometry" />
        </mxCell>
        <mxCell id="uO7FjOwFomCsVzwb91al-24" style="edgeStyle=none;orthogonalLoop=1;jettySize=auto;html=1;exitX=0.5;exitY=0;exitDx=0;exitDy=0;entryX=0.5;entryY=1;entryDx=0;entryDy=0;fontColor=#007FFF;endArrow=none;" parent="uO7FjOwFomCsVzwb91al-23" edge="1">
          <mxGeometry relative="1" as="geometry" />
        </mxCell>
        <mxCell id="uO7FjOwFomCsVzwb91al-25" value="" style="group;rotation=110;" parent="uO7FjOwFomCsVzwb91al-23" vertex="1" connectable="0">
          <mxGeometry width="20" height="10" as="geometry" />
        </mxCell>
        <mxCell id="uO7FjOwFomCsVzwb91al-26" value="" style="edgeStyle=orthogonalEdgeStyle;rounded=0;orthogonalLoop=1;jettySize=auto;html=1;endArrow=none;endFill=0;" parent="uO7FjOwFomCsVzwb91al-25" edge="1">
          <mxGeometry relative="1" as="geometry" />
        </mxCell>
        <mxCell id="uO7FjOwFomCsVzwb91al-27" value="" style="shape=requiredInterface;html=1;verticalLabelPosition=bottom;rotation=20;" parent="uO7FjOwFomCsVzwb91al-25" vertex="1">
          <mxGeometry x="5" y="-5" width="10" height="20" as="geometry" />
        </mxCell>
        <mxCell id="ZvNZ9_FlC1upSQAxGc2a-97" style="edgeStyle=orthogonalEdgeStyle;rounded=0;orthogonalLoop=1;jettySize=auto;html=1;exitX=0.5;exitY=1;exitDx=0;exitDy=0;endArrow=none;endFill=0;" parent="1" source="Fr1E9OPYCrHmNysL7G3M-10" target="ZvNZ9_FlC1upSQAxGc2a-96" edge="1">
          <mxGeometry relative="1" as="geometry" />
        </mxCell>
        <mxCell id="d9PDwLTGwNbEm6WTe5Uz-35" style="edgeStyle=none;rounded=0;orthogonalLoop=1;jettySize=auto;html=1;exitX=0.5;exitY=0;exitDx=0;exitDy=0;entryX=0.5;entryY=1;entryDx=0;entryDy=0;endArrow=none;" parent="1" source="Fr1E9OPYCrHmNysL7G3M-10" target="BIAA3tRsBqz8I-IRi0Bk-167" edge="1">
          <mxGeometry relative="1" as="geometry" />
        </mxCell>
        <mxCell id="d9PDwLTGwNbEm6WTe5Uz-36" style="edgeStyle=none;rounded=0;orthogonalLoop=1;jettySize=auto;html=1;exitX=0.5;exitY=0;exitDx=0;exitDy=0;entryX=0.5;entryY=1;entryDx=0;entryDy=0;endArrow=none;" parent="1" source="Fr1E9OPYCrHmNysL7G3M-10" target="BIAA3tRsBqz8I-IRi0Bk-168" edge="1">
          <mxGeometry relative="1" as="geometry" />
        </mxCell>
        <mxCell id="d9PDwLTGwNbEm6WTe5Uz-37" style="edgeStyle=none;rounded=0;orthogonalLoop=1;jettySize=auto;html=1;exitX=0.5;exitY=0;exitDx=0;exitDy=0;entryX=0.5;entryY=1;entryDx=0;entryDy=0;endArrow=none;" parent="1" source="Fr1E9OPYCrHmNysL7G3M-10" target="BIAA3tRsBqz8I-IRi0Bk-68" edge="1">
          <mxGeometry relative="1" as="geometry" />
        </mxCell>
        <mxCell id="d9PDwLTGwNbEm6WTe5Uz-38" style="edgeStyle=none;rounded=0;orthogonalLoop=1;jettySize=auto;html=1;exitX=0.5;exitY=0;exitDx=0;exitDy=0;entryX=0.5;entryY=1;entryDx=0;entryDy=0;endArrow=none;" parent="1" source="Fr1E9OPYCrHmNysL7G3M-10" target="BIAA3tRsBqz8I-IRi0Bk-169" edge="1">
          <mxGeometry relative="1" as="geometry" />
        </mxCell>
        <mxCell id="d9PDwLTGwNbEm6WTe5Uz-39" style="edgeStyle=none;rounded=0;orthogonalLoop=1;jettySize=auto;html=1;exitX=0.5;exitY=0;exitDx=0;exitDy=0;entryX=0.5;entryY=1;entryDx=0;entryDy=0;endArrow=none;" parent="1" source="Fr1E9OPYCrHmNysL7G3M-10" target="BIAA3tRsBqz8I-IRi0Bk-77" edge="1">
          <mxGeometry relative="1" as="geometry" />
        </mxCell>
        <mxCell id="iurEXQxwHKVmv0Fb5syX-13" style="edgeStyle=none;orthogonalLoop=1;jettySize=auto;html=1;exitX=1;exitY=1;exitDx=0;exitDy=0;entryX=0;entryY=0;entryDx=0;entryDy=0;endArrow=none;" parent="1" source="Fr1E9OPYCrHmNysL7G3M-10" target="iurEXQxwHKVmv0Fb5syX-11" edge="1">
          <mxGeometry relative="1" as="geometry" />
        </mxCell>
        <mxCell id="iurEXQxwHKVmv0Fb5syX-15" style="edgeStyle=none;orthogonalLoop=1;jettySize=auto;html=1;exitX=0;exitY=1;exitDx=0;exitDy=0;entryX=1;entryY=0;entryDx=0;entryDy=0;endArrow=none;" parent="1" source="Fr1E9OPYCrHmNysL7G3M-10" target="iurEXQxwHKVmv0Fb5syX-14" edge="1">
          <mxGeometry relative="1" as="geometry" />
        </mxCell>
        <mxCell id="Fr1E9OPYCrHmNysL7G3M-10" value="ORDER_ITEM" style="shape=ext;margin=3;double=1;whiteSpace=wrap;html=1;align=center;strokeColor=#000000;fillColor=#FFFFFF;" parent="1" vertex="1">
          <mxGeometry x="350" y="473.9999999999999" width="140" height="45" as="geometry" />
        </mxCell>
        <mxCell id="d9PDwLTGwNbEm6WTe5Uz-40" style="edgeStyle=none;rounded=0;orthogonalLoop=1;jettySize=auto;html=1;exitX=1;exitY=0.5;exitDx=0;exitDy=0;entryX=0;entryY=0.5;entryDx=0;entryDy=0;endArrow=none;" parent="1" source="ZvNZ9_FlC1upSQAxGc2a-93" target="Fr1E9OPYCrHmNysL7G3M-10" edge="1">
          <mxGeometry relative="1" as="geometry" />
        </mxCell>
        <mxCell id="ZvNZ9_FlC1upSQAxGc2a-93" value="&lt;font&gt;CONTAINS&lt;/font&gt;" style="shape=rhombus;double=1;perimeter=rhombusPerimeter;whiteSpace=wrap;html=1;align=center;strokeColor=#000000;fillColor=#FFFFFF;" parent="1" vertex="1">
          <mxGeometry x="130" y="466.87" width="120" height="60" as="geometry" />
        </mxCell>
        <mxCell id="ZvNZ9_FlC1upSQAxGc2a-96" value="Sent" style="rhombus;whiteSpace=wrap;html=1;rounded=0;" parent="1" vertex="1">
          <mxGeometry x="380" y="603.38" width="80" height="80" as="geometry" />
        </mxCell>
        <mxCell id="ZvNZ9_FlC1upSQAxGc2a-99" value="" style="group;" parent="1" vertex="1" connectable="0">
          <mxGeometry x="-155.16840575370347" y="757.1540508978795" width="20.33681150740692" height="10.691898204240943" as="geometry" />
        </mxCell>
        <mxCell id="ZvNZ9_FlC1upSQAxGc2a-100" value="" style="edgeStyle=orthogonalEdgeStyle;rounded=0;orthogonalLoop=1;jettySize=auto;html=1;endArrow=none;endFill=0;" parent="ZvNZ9_FlC1upSQAxGc2a-99" edge="1">
          <mxGeometry relative="1" as="geometry" />
        </mxCell>
        <mxCell id="ZvNZ9_FlC1upSQAxGc2a-101" value="" style="shape=requiredInterface;html=1;verticalLabelPosition=bottom;rotation=-178;" parent="1" vertex="1">
          <mxGeometry x="70" y="487.5" width="10" height="20" as="geometry" />
        </mxCell>
        <mxCell id="d9PDwLTGwNbEm6WTe5Uz-5" style="edgeStyle=none;orthogonalLoop=1;jettySize=auto;html=1;exitX=0.5;exitY=1;exitDx=0;exitDy=0;entryX=0.5;entryY=0;entryDx=0;entryDy=0;endArrow=none;" parent="1" source="d9PDwLTGwNbEm6WTe5Uz-2" target="BIAA3tRsBqz8I-IRi0Bk-5" edge="1">
          <mxGeometry relative="1" as="geometry" />
        </mxCell>
        <mxCell id="d9PDwLTGwNbEm6WTe5Uz-2" value="Bank" style="ellipse;whiteSpace=wrap;html=1;fontColor=#007FFF;" parent="1" vertex="1">
          <mxGeometry x="-480" y="44.25" width="60" height="30" as="geometry" />
        </mxCell>
        <mxCell id="d9PDwLTGwNbEm6WTe5Uz-3" value="Date_valid_from" style="ellipse;whiteSpace=wrap;html=1;fontColor=#007FFF;" parent="1" vertex="1">
          <mxGeometry x="-342.86" y="89.25" width="97.86" height="45" as="geometry" />
        </mxCell>
        <mxCell id="d9PDwLTGwNbEm6WTe5Uz-6" style="edgeStyle=none;orthogonalLoop=1;jettySize=auto;html=1;exitX=0.5;exitY=1;exitDx=0;exitDy=0;entryX=0.5;entryY=0;entryDx=0;entryDy=0;endArrow=none;" parent="1" source="d9PDwLTGwNbEm6WTe5Uz-4" target="BIAA3tRsBqz8I-IRi0Bk-5" edge="1">
          <mxGeometry relative="1" as="geometry" />
        </mxCell>
        <mxCell id="d9PDwLTGwNbEm6WTe5Uz-4" value="Date_valid_to" style="ellipse;whiteSpace=wrap;html=1;fontColor=#007FFF;" parent="1" vertex="1">
          <mxGeometry x="-420" y="64.25" width="83.93" height="40" as="geometry" />
        </mxCell>
        <mxCell id="d9PDwLTGwNbEm6WTe5Uz-9" value="" style="group;" parent="1" vertex="1" connectable="0">
          <mxGeometry x="-59.68000000000001" y="174.25" width="10" height="20" as="geometry" />
        </mxCell>
        <mxCell id="d9PDwLTGwNbEm6WTe5Uz-1" style="edgeStyle=none;orthogonalLoop=1;jettySize=auto;html=1;exitX=1;exitY=0.5;exitDx=0;exitDy=0;entryX=0;entryY=0.5;entryDx=0;entryDy=0;endArrow=none;" parent="d9PDwLTGwNbEm6WTe5Uz-9" source="BIAA3tRsBqz8I-IRi0Bk-3" target="BIAA3tRsBqz8I-IRi0Bk-1" edge="1">
          <mxGeometry relative="1" as="geometry" />
        </mxCell>
        <mxCell id="d9PDwLTGwNbEm6WTe5Uz-8" value="" style="shape=requiredInterface;html=1;verticalLabelPosition=bottom;rotation=0;" parent="d9PDwLTGwNbEm6WTe5Uz-9" vertex="1">
          <mxGeometry width="10" height="20" as="geometry" />
        </mxCell>
        <mxCell id="d9PDwLTGwNbEm6WTe5Uz-14" style="edgeStyle=none;orthogonalLoop=1;jettySize=auto;html=1;exitX=1;exitY=0.5;exitDx=0;exitDy=0;entryX=0;entryY=0.5;entryDx=0;entryDy=0;endArrow=none;" parent="1" source="d9PDwLTGwNbEm6WTe5Uz-10" target="BIAA3tRsBqz8I-IRi0Bk-59" edge="1">
          <mxGeometry relative="1" as="geometry" />
        </mxCell>
        <mxCell id="d9PDwLTGwNbEm6WTe5Uz-10" value="Date" style="ellipse;whiteSpace=wrap;html=1;" parent="1" vertex="1">
          <mxGeometry x="-172.5" y="477.75" width="45" height="17.5" as="geometry" />
        </mxCell>
        <mxCell id="d9PDwLTGwNbEm6WTe5Uz-11" value="&lt;u&gt;Id&lt;/u&gt;" style="ellipse;whiteSpace=wrap;html=1;" parent="1" vertex="1">
          <mxGeometry x="-122.5" y="457.75" width="35" height="20.5" as="geometry" />
        </mxCell>
        <mxCell id="d9PDwLTGwNbEm6WTe5Uz-17" value="" style="endArrow=classic;html=1;exitX=0.5;exitY=1;exitDx=0;exitDy=0;entryX=0.5;entryY=0;entryDx=0;entryDy=0;strokeColor=#007FFF;" parent="1" source="ZvNZ9_FlC1upSQAxGc2a-96" target="BIAA3tRsBqz8I-IRi0Bk-104" edge="1">
          <mxGeometry width="50" height="50" relative="1" as="geometry">
            <mxPoint x="430" y="665.63" as="sourcePoint" />
            <mxPoint x="480" y="615.63" as="targetPoint" />
          </mxGeometry>
        </mxCell>
        <mxCell id="d9PDwLTGwNbEm6WTe5Uz-18" value="&amp;gt;=1" style="text;html=1;align=center;verticalAlign=middle;resizable=0;points=[];autosize=1;strokeColor=none;fontColor=#007FFF;" parent="1" vertex="1">
          <mxGeometry x="420" y="695.63" width="40" height="20" as="geometry" />
        </mxCell>
        <mxCell id="iurEXQxwHKVmv0Fb5syX-3" value="CUSTOMER.Id" style="ellipse;whiteSpace=wrap;html=1;fillColor=#FFFF00;" parent="1" vertex="1">
          <mxGeometry x="-600" y="169.62" width="115" height="34.25" as="geometry" />
        </mxCell>
        <mxCell id="iurEXQxwHKVmv0Fb5syX-7" value="INVOICE.Number" style="ellipse;whiteSpace=wrap;html=1;rounded=0;fillColor=#FFFF00;" parent="1" vertex="1">
          <mxGeometry x="-41.129999999999995" y="940" width="102.25" height="40" as="geometry" />
        </mxCell>
        <mxCell id="iurEXQxwHKVmv0Fb5syX-9" value="CUSTOMER.Id" style="ellipse;whiteSpace=wrap;html=1;fillColor=#FFFF00;" parent="1" vertex="1">
          <mxGeometry x="-145" y="401" width="115" height="34.25" as="geometry" />
        </mxCell>
        <mxCell id="iurEXQxwHKVmv0Fb5syX-11" value="SHIPMENT.Id" style="ellipse;whiteSpace=wrap;html=1;rounded=0;fillColor=#FFFF00;" parent="1" vertex="1">
          <mxGeometry x="500" y="537.75" width="90" height="40.25" as="geometry" />
        </mxCell>
        <mxCell id="iurEXQxwHKVmv0Fb5syX-14" value="ORDER.Id" style="ellipse;whiteSpace=wrap;html=1;rounded=0;fillColor=#FFFF00;" parent="1" vertex="1">
          <mxGeometry x="270" y="537.5" width="70" height="40.25" as="geometry" />
        </mxCell>
        <mxCell id="iurEXQxwHKVmv0Fb5syX-17" value="&lt;font color=&quot;#007fff&quot;&gt;&amp;gt;=1&lt;/font&gt;" style="text;html=1;align=center;verticalAlign=middle;resizable=0;points=[];autosize=1;strokeColor=none;" parent="1" vertex="1">
          <mxGeometry x="90" y="470" width="40" height="20" as="geometry" />
        </mxCell>
        <mxCell id="iurEXQxwHKVmv0Fb5syX-18" value="PRODUCT_TYPE.Id" style="ellipse;whiteSpace=wrap;html=1;fillColor=#FFFF00;" parent="1" vertex="1">
          <mxGeometry x="1048" y="595.07" width="136.5" height="43.13" as="geometry" />
        </mxCell>
      </root>
    </mxGraphModel>
  </diagram>
</mxfile>
